<svg width="52" height="43" viewBox="0 0 52 43" fill="none" xmlns="http://www.w3.org/2000/svg">
<path d="M36.9091 41V36.6667C36.9091 34.3681 35.9896 32.1637 34.3529 30.5384C32.7163 28.9131 30.4964 28 28.1818 28H10.7273C8.41266 28 6.19284 28.9131 4.55616 30.5384C2.91948 32.1637 2 34.3681 2 36.6667V41M50 41V36.6667C49.9986 34.7464 49.355 32.881 48.1703 31.3633C46.9855 29.8457 45.3268 28.7617 43.4545 28.2817M34.7273 2.28167C36.6045 2.75899 38.2684 3.84319 39.4567 5.36334C40.6449 6.88349 41.2898 8.75313 41.2898 10.6775C41.2898 12.6019 40.6449 14.4715 39.4567 15.9917C38.2684 17.5118 36.6045 18.596 34.7273 19.0733M28.1818 10.6667C28.1818 15.4531 24.2745 19.3333 19.4545 19.3333C14.6346 19.3333 10.7273 15.4531 10.7273 10.6667C10.7273 5.8802 14.6346 2 19.4545 2C24.2745 2 28.1818 5.8802 28.1818 10.6667Z" stroke="#C3C2C2" stroke-width="4" stroke-linecap="round" stroke-linejoin="round"/>
</svg>
